<!-- Generator: Adobe Illustrator 21.1.0, SVG Export Plug-In  -->
<svg version="1.1"
	 xmlns="http://www.w3.org/2000/svg" xmlns:xlink="http://www.w3.org/1999/xlink" xmlns:a="http://ns.adobe.com/AdobeSVGViewerExtensions/3.0/"
	 x="0px" y="0px" width="155.4px" height="182.4px" viewBox="0 0 155.4 182.4"
	 style="overflow:scroll;enable-background:new 0 0 155.4 182.4;" xml:space="preserve">
<style type="text/css">
	.st0{fill-rule:evenodd;clip-rule:evenodd;fill:url(#SVGID_1_);}
	.st1{fill-rule:evenodd;clip-rule:evenodd;fill:url(#SVGID_2_);}
	.st2{fill-rule:evenodd;clip-rule:evenodd;fill:url(#SVGID_3_);}
	.st3{fill-rule:evenodd;clip-rule:evenodd;fill:url(#SVGID_4_);}
	.st4{fill-rule:evenodd;clip-rule:evenodd;fill:url(#SVGID_5_);}
	.st5{fill-rule:evenodd;clip-rule:evenodd;fill:url(#SVGID_6_);}
</style>
<defs>
</defs>
<g>
	<linearGradient id="SVGID_1_" gradientUnits="userSpaceOnUse" x1="128.665" y1="26.7129" x2="-0.3011" y2="155.679">
		<stop  offset="0" style="stop-color:#000007"/>
		<stop  offset="4.682484e-02" style="stop-color:#000010"/>
		<stop  offset="9.600693e-02" style="stop-color:#00001C"/>
		<stop  offset="0.1463" style="stop-color:#000029"/>
		<stop  offset="0.1973" style="stop-color:#000E39"/>
		<stop  offset="0.2489" style="stop-color:#001C4B"/>
		<stop  offset="0.301" style="stop-color:#002860"/>
		<stop  offset="0.3526" style="stop-color:#003276"/>
		<stop  offset="0.369" style="stop-color:#00347D"/>
		<stop  offset="0.431" style="stop-color:#00347D"/>
		<stop  offset="0.8075" style="stop-color:#00347D"/>
	</linearGradient>
	<path class="st0" d="M64.2,0C39.1,0,16.5,10.1,0,26.4h45c35.8,0,64.8,29,64.8,64.8S80.7,156,45,156H0
		c16.5,16.3,39.1,26.4,64.2,26.4c50.4,0,91.2-40.8,91.2-91.2C155.4,40.8,114.5,0,64.2,0z"/>
	<linearGradient id="SVGID_2_" gradientUnits="userSpaceOnUse" x1="77.6875" y1="0" x2="77.6875" y2="120.7545">
		<stop  offset="0" style="stop-color:#9C4336"/>
		<stop  offset="0.1021" style="stop-color:#AE4535"/>
		<stop  offset="0.2137" style="stop-color:#BC4733"/>
		<stop  offset="0.3134" style="stop-color:#C44832"/>
		<stop  offset="0.3904" style="stop-color:#C64832"/>
		<stop  offset="0.4765" style="stop-color:#C64832"/>
		<stop  offset="1" style="stop-color:#C64832"/>
	</linearGradient>
	<path class="st1" d="M74.6,33.6c43.4,8.3,75.9,42.9,75.9,84.4c0,0.9,0,1.8-0.1,2.8c3.2-9.3,4.9-19.2,4.9-29.6
		C155.4,40.8,114.5,0,64.2,0C39.1,0,16.5,10.1,0,26.4h45C55.6,26.4,65.7,29,74.6,33.6z"/>
	<g>
		<linearGradient id="SVGID_3_" gradientUnits="userSpaceOnUse" x1="-0.7694" y1="122.1582" x2="60.3224" y2="61.0664">
			<stop  offset="0" style="stop-color:#9C4336"/>
			<stop  offset="0.6096" style="stop-color:#C64832"/>
			<stop  offset="1" style="stop-color:#C64832"/>
		</linearGradient>
		<path class="st2" d="M43.7,123.5H0.6V59.7h43.1c19.2,0,34.8,14.3,34.8,31.9C78.5,109.2,62.9,123.5,43.7,123.5z"/>
	</g>
</g>
</svg>
