<?xml version="1.0" standalone="no"?>
<!DOCTYPE svg PUBLIC "-//W3C//DTD SVG 20010904//EN"
 "http://www.w3.org/TR/2001/REC-SVG-20010904/DTD/svg10.dtd">
<svg version="1.0" xmlns="http://www.w3.org/2000/svg"
 width="260.000000pt" height="260.000000pt" viewBox="0 0 260.000000 260.000000"
 preserveAspectRatio="xMidYMid meet">
<metadata>
Created by potrace 1.11, written by Peter Selinger 2001-2013
</metadata>
<g transform="translate(0.000000,260.000000) scale(0.100000,-0.100000)"
fill="#000000" stroke="none">
<path d="M1635 2119 c-187 -37 -341 -122 -466 -257 -62 -67 -150 -204 -153
-238 -2 -33 23 -25 39 11 48 117 196 280 320 353 146 85 334 125 491 103 374
-51 646 -325 695 -697 10 -72 10 -111 0 -180 -51 -373 -325 -646 -697 -695
-216 -29 -459 50 -617 200 -44 42 -60 52 -69 43 -10 -10 1 -25 48 -70 95 -89
206 -148 355 -189 90 -25 299 -24 394 1 253 66 467 251 561 484 47 117 59 180
59 317 0 225 -66 396 -214 557 -109 118 -250 203 -401 243 -77 20 -274 28
-345 14z"/>
<path d="M191 1649 c-48 -9 -91 -33 -91 -50 0 -6 -16 -115 -36 -241 -33 -213
-35 -232 -20 -247 20 -19 104 -20 116 -1 4 7 11 41 15 74 3 34 9 67 13 73 4 6
36 12 72 15 81 5 134 30 171 80 33 46 53 131 43 183 -18 96 -136 143 -283 114z
m133 -141 c34 -47 -12 -118 -77 -118 l-39 0 7 57 c10 80 12 83 56 83 28 0 42
-6 53 -22z"/>
<path d="M1360 1608 c-5 -13 -21 -102 -35 -198 -14 -96 -27 -186 -29 -199 -12
-77 38 -124 132 -123 58 0 87 17 103 61 16 40 3 60 -34 55 -19 -3 -40 0 -51 9
-18 13 -18 18 -5 93 l14 79 51 3 c43 2 53 7 63 28 6 14 11 38 11 54 0 29 -1
30 -54 30 l-53 0 5 50 c6 64 -7 80 -64 80 -37 0 -46 -4 -54 -22z"/>
<path d="M1047 1539 c-54 -13 -115 -46 -127 -70 -10 -17 -60 -299 -60 -336 0
-33 66 -55 113 -37 11 4 21 48 38 156 13 86 29 156 37 164 7 8 29 14 47 14 53
0 58 -19 35 -156 -24 -145 -24 -149 -4 -168 16 -16 80 -22 100 -8 16 10 57
278 51 336 -3 38 -11 55 -31 72 -46 40 -118 52 -199 33z"/>
<path d="M2148 1536 c-84 -31 -120 -77 -122 -151 -2 -64 23 -91 104 -116 54
-16 70 -25 70 -39 0 -11 -5 -22 -11 -26 -20 -12 -98 -5 -131 12 -31 16 -32 16
-50 -6 -65 -80 43 -150 186 -120 70 14 119 57 136 119 21 81 -4 121 -100 155
-73 27 -88 50 -43 67 21 8 41 7 83 -5 50 -14 56 -14 68 1 21 29 15 81 -13 99
-34 22 -131 28 -177 10z"/>
<path d="M528 1533 c-30 -5 -27 6 -53 -163 -28 -178 -17 -232 52 -266 82 -39
248 -12 286 48 16 24 57 261 57 328 0 21 -5 42 -12 46 -12 8 -97 9 -105 1 -2
-3 -15 -74 -28 -158 -14 -89 -30 -156 -37 -161 -34 -21 -99 2 -98 35 1 7 9 64
19 128 18 117 15 159 -13 159 -8 0 -20 2 -28 3 -7 2 -25 2 -40 0z"/>
<path d="M1710 1509 c-122 -51 -173 -200 -107 -312 31 -53 91 -93 152 -102
103 -17 213 61 234 165 18 93 -12 172 -87 224 -34 24 -55 31 -105 33 -34 2
-73 -2 -87 -8z m111 -59 c11 -7 21 -26 25 -50 6 -35 10 -40 33 -40 38 0 64
-22 64 -53 0 -36 -18 -55 -59 -63 -19 -3 -34 -9 -35 -13 -7 -60 -24 -83 -63
-83 -37 0 -56 19 -56 57 0 29 -3 33 -36 38 -47 8 -64 23 -64 58 0 37 24 59 66
59 32 0 34 2 34 34 0 56 42 82 91 56z"/>
<path d="M1756 1354 c-9 -8 -16 -21 -16 -27 0 -8 4 -7 12 1 7 7 27 12 45 12
23 0 33 5 33 15 0 20 -54 20 -74 -1z"/>
<path d="M1752 1318 c-7 -7 -12 -27 -12 -45 0 -26 4 -33 20 -33 13 0 20 7 20
19 0 12 9 21 25 25 14 4 25 11 25 16 0 6 -11 10 -25 10 -14 0 -25 5 -25 10 0
14 -13 13 -28 -2z"/>
<path d="M442 974 c-12 -8 -22 -24 -22 -34 0 -17 2 -18 28 -4 15 7 44 14 65
14 30 0 37 4 37 20 0 17 -7 20 -43 20 -23 0 -53 -7 -65 -16z"/>
<path d="M1727 983 c-4 -3 -7 -44 -7 -90 0 -79 1 -84 24 -93 13 -5 33 -6 45
-3 28 7 28 43 1 43 -16 0 -20 7 -20 30 0 23 4 30 20 30 13 0 20 7 20 20 0 13
-7 20 -20 20 -13 0 -20 7 -20 19 0 10 -7 22 -16 25 -19 7 -19 7 -27 -1z"/>
<path d="M600 953 c-40 -16 -32 -47 10 -38 45 10 45 -13 0 -25 -35 -9 -40 -14
-40 -39 0 -16 7 -35 16 -42 20 -17 88 -16 109 1 21 17 20 92 -2 119 -19 22
-67 35 -93 24z m58 -105 c-3 -7 -11 -13 -18 -13 -7 0 -15 6 -17 13 -3 7 4 12
17 12 13 0 20 -5 18 -12z"/>
<path d="M773 953 c-35 -7 -44 -27 -41 -90 3 -51 6 -58 26 -61 21 -3 22 0 22
52 0 52 2 56 24 56 27 0 40 22 23 39 -11 11 -15 12 -54 4z"/>
<path d="M878 949 c-27 -10 -28 -14 -28 -80 0 -67 1 -69 25 -69 24 0 25 3 25
55 0 41 4 55 14 55 11 0 16 -15 18 -52 3 -49 5 -53 31 -56 27 -3 27 -2 27 52
0 43 3 56 15 56 12 0 15 -13 15 -55 0 -52 1 -55 25 -55 24 0 25 2 25 65 0 58
-3 66 -25 81 -17 11 -33 14 -52 8 -16 -4 -30 -7 -33 -6 -3 0 -17 3 -30 6 -14
3 -37 0 -52 -5z"/>
<path d="M1118 950 c-30 -18 -23 -43 10 -36 15 3 33 2 41 -3 10 -6 5 -11 -20
-16 -44 -9 -59 -22 -59 -50 0 -40 55 -63 109 -44 30 11 31 13 31 69 0 37 -5
62 -14 69 -20 17 -78 23 -98 11z m60 -102 c-3 -7 -11 -13 -18 -13 -7 0 -15 6
-17 13 -3 7 4 12 17 12 13 0 20 -5 18 -12z"/>
<path d="M1288 949 c-27 -10 -28 -14 -28 -80 0 -67 1 -69 25 -69 24 0 25 3 25
55 0 48 2 55 20 55 18 0 20 -7 20 -55 0 -52 1 -55 25 -55 24 0 25 2 25 64 0
41 -5 67 -13 75 -21 17 -69 21 -99 10z"/>
<path d="M1463 950 c-39 -16 -56 -77 -33 -120 14 -27 64 -41 100 -28 34 11 50
34 50 72 0 38 -10 55 -41 71 -32 17 -44 18 -76 5z m62 -59 c8 -26 -4 -51 -25
-51 -10 0 -21 7 -24 16 -10 25 3 54 24 54 10 0 21 -8 25 -19z"/>
<path d="M1630 947 c-22 -11 -25 -19 -28 -80 -3 -66 -3 -67 23 -67 24 0 25 3
25 55 0 49 2 55 20 55 25 0 38 29 19 41 -19 12 -29 11 -59 -4z"/>
<path d="M1864 948 c-23 -11 -44 -48 -44 -77 0 -26 36 -68 64 -75 14 -3 36 -2
50 4 33 12 35 42 4 40 -40 -4 -58 0 -58 10 0 6 10 10 23 10 70 1 91 40 41 79
-29 23 -48 25 -80 9z m50 -37 c3 -5 -1 -12 -10 -15 -27 -11 -37 -7 -24 9 14
17 26 19 34 6z"/>
<path d="M436 917 c-13 -10 -17 -24 -14 -67 3 -47 6 -55 23 -55 15 0 21 8 23
32 3 28 7 32 35 35 24 2 33 8 35 26 3 19 -1 22 -32 22 -20 0 -36 5 -36 10 0
14 -13 13 -34 -3z"/>
</g>
</svg>
